<svg width="32" height="32" viewBox="0 0 32 32" fill="none" xmlns="http://www.w3.org/2000/svg">
<path d="M14.3783 26.7582L11.8483 25.9155C11.7716 25.8889 11.7034 25.8421 11.6512 25.7799C11.599 25.7177 11.5647 25.6425 11.5518 25.5623C11.5389 25.4821 11.5481 25.4 11.5782 25.3246C11.6084 25.2492 11.6584 25.1834 11.723 25.1342C12.3496 24.5843 12.8482 23.9039 13.1837 23.1407C13.5191 22.3775 13.6834 21.5501 13.6648 20.7167C13.6648 17.7582 11.6662 15.3599 9.20077 15.3599C6.73532 15.3599 4.73676 17.7581 4.73676 20.7167C4.71818 21.5501 4.88239 22.3775 5.21785 23.1407C5.55331 23.9039 6.05187 24.5844 6.67849 25.1342C6.74308 25.1834 6.79312 25.2492 6.82327 25.3246C6.85342 25.4 6.86255 25.4822 6.84969 25.5624C6.83684 25.6425 6.80247 25.7177 6.75026 25.7799C6.69805 25.8421 6.62995 25.889 6.55321 25.9155L4.02317 26.7582C3.40753 26.9633 2.84399 27.3001 2.37182 27.7452C1.89965 28.1903 1.5302 28.733 1.2892 29.3355L0.76249 30.6523C0.70829 30.7877 0.688119 30.9344 0.70374 31.0795C0.719362 31.2246 0.770301 31.3636 0.852099 31.4844C0.933897 31.6052 1.04406 31.7042 1.17295 31.7725C1.30184 31.8409 1.44552 31.8767 1.59143 31.8767H16.8101C16.956 31.8767 17.0997 31.8409 17.2286 31.7725C17.3575 31.7042 17.4677 31.6052 17.5495 31.4844C17.6313 31.3636 17.6822 31.2246 17.6978 31.0795C17.7134 30.9344 17.6933 30.7877 17.6391 30.6523L17.1124 29.3355C16.8714 28.733 16.5019 28.1903 16.0297 27.7452C15.5575 27.3001 14.994 26.9632 14.3783 26.7582Z" fill="black"/>
<path d="M29.0596 9.52954H26.0728C25.7411 9.5333 25.4223 9.65878 25.177 9.88216C24.9318 10.1055 24.7771 10.4112 24.7424 10.7411C24.6744 11.3227 24.444 11.8734 24.0775 12.33C23.711 12.7867 23.2233 13.1309 22.6702 13.3232C22.1171 13.5154 21.5211 13.548 20.9504 13.4172C20.3796 13.2864 19.8573 12.9974 19.4432 12.5835C19.0291 12.1695 18.74 11.6473 18.609 11.0766C18.478 10.5059 18.5104 9.90981 18.7025 9.35669C18.8946 8.80356 19.2386 8.31574 19.6951 7.9491C20.1517 7.58246 20.7023 7.35184 21.2838 7.28366C21.614 7.24912 21.92 7.09436 22.1436 6.84884C22.3671 6.60331 22.4925 6.28417 22.496 5.95216V2.96595C22.4965 2.7827 22.4596 2.60127 22.3875 2.43281C22.3154 2.26435 22.2096 2.11241 22.0766 1.98632C21.9436 1.86023 21.7863 1.76265 21.6142 1.69957C21.4422 1.6365 21.259 1.60926 21.0761 1.61953C18.9531 1.75735 16.9524 2.6613 15.4458 4.16335C13.9392 5.6654 13.0292 7.66337 12.885 9.78592C12.7407 11.9085 13.372 14.0112 14.6616 15.7032C15.9511 17.3953 17.8111 18.5616 19.8959 18.9854C20.478 19.0991 21.0697 19.1566 21.6628 19.1572C23.5983 19.161 25.4796 18.5177 27.0076 17.3296C27.9945 16.5685 28.8079 15.6058 29.3938 14.5058C29.9796 13.4058 30.3245 12.1937 30.4054 10.95V10.9483C30.4164 10.7674 30.3903 10.5862 30.3287 10.4158C30.2671 10.2453 30.1714 10.0893 30.0474 9.95714C29.9204 9.82251 29.7673 9.71516 29.5975 9.64164C29.4277 9.56812 29.2446 9.52998 29.0596 9.52954Z" fill="black"/>
<path d="M29.5677 0.477251H26.1732C25.0796 0.477251 24.1931 1.36378 24.1931 2.45738V5.85188C24.1931 6.94548 25.0796 7.83201 26.1732 7.83201H29.5677C30.6613 7.83201 31.5479 6.94548 31.5479 5.85188V2.45738C31.5479 1.36378 30.6613 0.477251 29.5677 0.477251Z" fill="black"/>
<path d="M30.6993 22.5418H18.2528C18.0277 22.5418 17.8119 22.4524 17.6527 22.2932C17.4936 22.1341 17.4042 21.9182 17.4042 21.6932C17.4042 21.4681 17.4936 21.2523 17.6527 21.0931C17.8119 20.934 18.0277 20.8446 18.2528 20.8446H30.6993C30.9244 20.8446 31.1402 20.934 31.2994 21.0931C31.4585 21.2523 31.5479 21.4681 31.5479 21.6932C31.5479 21.9182 31.4585 22.1341 31.2994 22.2932C31.1402 22.4524 30.9244 22.5418 30.6993 22.5418Z" fill="black"/>
<path d="M30.6993 25.9361H19.3843C19.1592 25.9361 18.9433 25.8467 18.7842 25.6875C18.6251 25.5284 18.5356 25.3125 18.5356 25.0874C18.5356 24.8624 18.6251 24.6465 18.7842 24.4874C18.9433 24.3282 19.1592 24.2388 19.3843 24.2388H30.6993C30.9244 24.2388 31.1402 24.3282 31.2994 24.4874C31.4585 24.6465 31.5479 24.8624 31.5479 25.0874C31.5479 25.3125 31.4585 25.5284 31.2994 25.6875C31.1402 25.8467 30.9244 25.9361 30.6993 25.9361Z" fill="black"/>
<path d="M30.6993 29.3306H20.5157C20.2907 29.3306 20.0748 29.2412 19.9157 29.082C19.7565 28.9229 19.6671 28.707 19.6671 28.482C19.6671 28.2569 19.7565 28.041 19.9157 27.8819C20.0748 27.7227 20.2907 27.6333 20.5157 27.6333H30.6993C30.9243 27.6333 31.1402 27.7227 31.2993 27.8819C31.4585 28.041 31.5479 28.2569 31.5479 28.482C31.5479 28.707 31.4585 28.9229 31.2993 29.082C31.1402 29.2412 30.9243 29.3306 30.6993 29.3306Z" fill="black"/>
</svg>
