<svg width="20" height="20" viewBox="0 0 20 20" fill="none" xmlns="http://www.w3.org/2000/svg">
<path d="M17.5747 5.75801H12.9471M5.23448 5.75801H2.14941M17.5747 14.2419H14.4897M6.77701 14.2419H2.14941M8.31955 8.45744C8.67404 8.45744 9.02506 8.38762 9.35257 8.25196C9.68008 8.1163 9.97767 7.91746 10.2283 7.6668C10.479 7.41613 10.6778 7.11855 10.8135 6.79104C10.9492 6.46353 11.019 6.11251 11.019 5.75801C11.019 5.40352 10.9492 5.05249 10.8135 4.72498C10.6778 4.39747 10.479 4.09989 10.2283 3.84922C9.97767 3.59856 9.68008 3.39972 9.35257 3.26406C9.02506 3.1284 8.67404 3.05858 8.31955 3.05858C7.60361 3.05858 6.917 3.34298 6.41076 3.84922C5.90452 4.35547 5.62011 5.04208 5.62011 5.75801C5.62011 6.47395 5.90452 7.16056 6.41076 7.6668C6.917 8.17304 7.60361 8.45744 8.31955 8.45744V8.45744ZM11.4046 16.9414C12.1205 16.9414 12.8072 16.657 13.3134 16.1507C13.8196 15.6445 14.104 14.9579 14.104 14.2419C14.104 13.526 13.8196 12.8394 13.3134 12.3332C12.8072 11.8269 12.1205 11.5425 11.4046 11.5425C10.6887 11.5425 10.0021 11.8269 9.49583 12.3332C8.98958 12.8394 8.70518 13.526 8.70518 14.2419C8.70518 14.9579 8.98958 15.6445 9.49583 16.1507C10.0021 16.657 10.6887 16.9414 11.4046 16.9414V16.9414Z" stroke="white" stroke-width="1.44612" stroke-miterlimit="10" stroke-linecap="round" stroke-linejoin="round"/>
</svg>
