<svg width="31" height="32" viewBox="0 0 31 32" fill="none" xmlns="http://www.w3.org/2000/svg">
<path d="M15.5401 9.86143C16.605 9.86143 17.4682 8.9982 17.4682 7.93335C17.4682 6.8685 16.605 6.00527 15.5401 6.00527C14.4753 6.00527 13.6121 6.8685 13.6121 7.93335C13.6121 8.9982 14.4753 9.86143 15.5401 9.86143Z" fill="#808080"/>
<path d="M15.5401 17.5735C16.605 17.5735 17.4682 16.7103 17.4682 15.6454C17.4682 14.5806 16.605 13.7173 15.5401 13.7173C14.4753 13.7173 13.6121 14.5806 13.6121 15.6454C13.6121 16.7103 14.4753 17.5735 15.5401 17.5735Z" fill="#808080"/>
<path d="M15.5401 25.2861C16.605 25.2861 17.4682 24.4228 17.4682 23.358C17.4682 22.2931 16.605 21.4299 15.5401 21.4299C14.4753 21.4299 13.6121 22.2931 13.6121 23.358C13.6121 24.4228 14.4753 25.2861 15.5401 25.2861Z" fill="#808080"/>
</svg>
