<svg width="32" height="32" viewBox="0 0 32 32" fill="none" xmlns="http://www.w3.org/2000/svg">
<path d="M15.9803 9.86149C17.0452 9.86149 17.9084 8.99826 17.9084 7.93341C17.9084 6.86856 17.0452 6.00533 15.9803 6.00533C14.9155 6.00533 14.0522 6.86856 14.0522 7.93341C14.0522 8.99826 14.9155 9.86149 15.9803 9.86149Z" fill="white"/>
<path d="M15.9803 17.5736C17.0452 17.5736 17.9084 16.7103 17.9084 15.6455C17.9084 14.5806 17.0452 13.7174 15.9803 13.7174C14.9155 13.7174 14.0522 14.5806 14.0522 15.6455C14.0522 16.7103 14.9155 17.5736 15.9803 17.5736Z" fill="white"/>
<path d="M15.9803 25.2861C17.0452 25.2861 17.9084 24.4229 17.9084 23.3581C17.9084 22.2932 17.0452 21.43 15.9803 21.43C14.9155 21.43 14.0522 22.2932 14.0522 23.3581C14.0522 24.4229 14.9155 25.2861 15.9803 25.2861Z" fill="white"/>
</svg>
