<svg width="39" height="38" viewBox="0 0 39 38" fill="none" xmlns="http://www.w3.org/2000/svg">
<path d="M22.6647 3.0331C22.425 2.83717 22.1488 2.69074 21.852 2.60228C21.5553 2.51382 21.244 2.48509 20.9361 2.51775C20.6283 2.55041 20.3299 2.64382 20.0584 2.79256C19.7868 2.9413 19.5475 3.14242 19.3542 3.38429L12.5739 11.8783H15.5707L21.1827 4.84523L22.9855 6.31787L18.4669 11.8783H21.4824L24.7999 7.79519L28.8222 11.08L28.1245 11.8783H28.8269C29.525 11.8776 30.2194 11.981 30.8872 12.185C31.1422 11.7065 31.2233 11.1544 31.1165 10.6228C31.0098 10.0912 30.7218 9.6131 30.3018 9.27017L22.6647 3.0331ZM7.75567 13.0489C7.75567 12.7385 7.879 12.4407 8.09854 12.2212C8.31807 12.0017 8.61582 11.8783 8.92629 11.8783H10.2327L12.094 9.53708H8.92629C7.99489 9.53708 7.10163 9.90707 6.44303 10.5657C5.78443 11.2243 5.41443 12.1175 5.41443 13.0489V27.0964C5.41443 28.6487 6.03109 30.1375 7.12876 31.2352C8.22643 32.3328 9.7152 32.9495 11.2675 32.9495H28.8269C30.0687 32.9495 31.2597 32.4562 32.1379 31.578C33.016 30.6999 33.5093 29.5089 33.5093 28.267V18.902C33.5093 17.6602 33.016 16.4692 32.1379 15.591C31.2597 14.7129 30.0687 14.2196 28.8269 14.2196H8.92629C8.61582 14.2196 8.31807 14.0962 8.09854 13.8767C7.879 13.6572 7.75567 13.3594 7.75567 13.0489ZM25.315 23.5845H27.6562C27.9667 23.5845 28.2645 23.7079 28.484 23.9274C28.7035 24.1469 28.8269 24.4447 28.8269 24.7552C28.8269 25.0656 28.7035 25.3634 28.484 25.5829C28.2645 25.8024 27.9667 25.9258 27.6562 25.9258H25.315C25.0045 25.9258 24.7068 25.8024 24.4872 25.5829C24.2677 25.3634 24.1444 25.0656 24.1444 24.7552C24.1444 24.4447 24.2677 24.1469 24.4872 23.9274C24.7068 23.7079 25.0045 23.5845 25.315 23.5845Z" fill="#2D2D2D"/>
</svg>
