<svg width="34" height="34" viewBox="0 0 34 34" fill="none" xmlns="http://www.w3.org/2000/svg">
<path fill-rule="evenodd" clip-rule="evenodd" d="M0.477539 5.70262V24.1646C1.73812 22.2517 3.86567 21.0976 6.16673 21.0976C7.04658 21.0976 7.91978 21.2673 8.73421 21.5997V7.03219V0.623013C7.93615 0.219121 7.06113 0.0134315 6.16673 0.0134315C3.02459 0.0134315 0.477539 2.56041 0.477539 5.70262ZM24.5448 16.9358C22.5921 16.9358 21.0094 18.5186 21.0094 20.4714C21.0094 22.4241 22.5921 24.0069 24.5448 24.0069C26.4976 24.0069 28.0804 22.4242 28.0804 20.4714C28.0803 18.5186 26.4976 16.9358 24.5448 16.9358ZM9.85353 7.59182V22.495C9.85353 22.947 9.34757 23.2057 8.98188 22.9598C8.12183 22.4692 7.15649 22.217 6.16673 22.217C3.02459 22.217 0.477539 24.7641 0.477539 27.9062C0.477539 31.0484 3.02459 33.5954 6.16673 33.5954H33.5304V7.59182H9.85353ZM13.8457 29.8766L12.4638 27.4829H15.2277L13.8457 29.8766ZM15.5508 26.3636H12.1407V12.487C12.1407 11.7044 12.7791 11.0661 13.5617 11.0661H14.13C14.9126 11.0661 15.5509 11.7045 15.5509 12.487L15.5508 26.3636ZM32.0347 21.485L30.7936 21.9628C30.6362 22.6241 30.374 23.2557 30.0176 23.8345L30.5578 25.0508L29.1243 26.4843L27.9084 25.9443C27.3295 26.3008 26.6977 26.563 26.0362 26.7203L25.5585 27.9612H23.5312L23.0535 26.72C22.3922 26.5626 21.7606 26.3004 21.1818 25.944L19.9655 26.4842L18.532 25.0508L19.072 23.8349C18.7155 23.256 18.4534 22.6241 18.296 21.9626L17.055 21.485V19.4578L18.2961 18.9801C18.4534 18.3187 18.7157 17.687 19.0721 17.1082L18.532 15.892L19.9655 14.4585L21.1818 14.9987C21.7606 14.6423 22.3923 14.38 23.0536 14.2227L23.5314 12.9815H25.5586L26.0364 14.2227C26.6977 14.3801 27.3293 14.6423 27.9081 14.9987L29.1244 14.4585L30.5579 15.8919L30.0179 17.1078C30.3744 17.6867 30.6366 18.3186 30.7939 18.9801L32.0348 19.4577V21.485H32.0347Z" fill="#FFBA39"/>
</svg>
