<svg width="20" height="22" viewBox="0 0 20 22" fill="none" xmlns="http://www.w3.org/2000/svg">
<path d="M9.99994 0C8.01082 0 6.10316 0.790176 4.69664 2.1967C3.29012 3.60322 2.49994 5.51088 2.49994 7.5V13.35L0.83994 15.85C0.640971 16.1568 0.528114 16.5114 0.513178 16.8767C0.498241 17.2421 0.581776 17.6047 0.755039 17.9267C0.928303 18.2487 1.18493 18.5182 1.49805 18.707C1.81118 18.8959 2.1693 18.997 2.53494 19H17.4649C17.8329 18.9988 18.1937 18.898 18.5092 18.7085C18.8246 18.5189 19.0828 18.2475 19.2565 17.9231C19.4303 17.5987 19.513 17.2333 19.496 16.8657C19.479 16.4981 19.3629 16.142 19.1599 15.835L17.4999 13.35V7.5C17.4999 5.51088 16.7098 3.60322 15.3032 2.1967C13.8967 0.790176 11.9891 0 9.99994 0Z" fill="#757575"/>
<path d="M9.99993 22C10.6197 21.9993 11.2241 21.8066 11.7299 21.4485C12.2358 21.0904 12.6183 20.5844 12.8249 20H7.17493C7.38153 20.5844 7.76404 21.0904 8.2699 21.4485C8.77576 21.8066 9.38013 21.9993 9.99993 22Z" fill="#757575"/>
</svg>
