<svg width="25" height="25" viewBox="0 0 25 25" fill="none" xmlns="http://www.w3.org/2000/svg">
<path d="M12.0117 15.0146C13.6702 15.0146 15.0146 13.6702 15.0146 12.0117C15.0146 10.3532 13.6702 9.00879 12.0117 9.00879C10.3532 9.00879 9.00879 10.3532 9.00879 12.0117C9.00879 13.6702 10.3532 15.0146 12.0117 15.0146Z" stroke="white" stroke-width="2.00195" stroke-linecap="round" stroke-linejoin="round"/>
<path d="M18.7456 14.7417C18.6244 15.0161 18.5883 15.3206 18.6418 15.6158C18.6953 15.911 18.8361 16.1834 19.0459 16.3978L19.1005 16.4524C19.2697 16.6214 19.4039 16.8222 19.4955 17.0431C19.5871 17.264 19.6342 17.5009 19.6342 17.74C19.6342 17.9792 19.5871 18.216 19.4955 18.437C19.4039 18.6579 19.2697 18.8586 19.1005 19.0277C18.9314 19.1969 18.7307 19.3311 18.5098 19.4227C18.2888 19.5143 18.052 19.5614 17.8128 19.5614C17.5737 19.5614 17.3368 19.5143 17.1159 19.4227C16.895 19.3311 16.6942 19.1969 16.5252 19.0277L16.4706 18.9731C16.2562 18.7633 15.9838 18.6225 15.6886 18.569C15.3934 18.5155 15.0889 18.5516 14.8145 18.6728C14.5453 18.7881 14.3158 18.9796 14.1541 19.2238C13.9924 19.4679 13.9056 19.754 13.9045 20.0468V20.2015C13.9045 20.6842 13.7127 21.1471 13.3714 21.4884C13.0301 21.8297 12.5672 22.0215 12.0845 22.0215C11.6018 22.0215 11.1389 21.8297 10.7976 21.4884C10.4563 21.1471 10.2646 20.6842 10.2646 20.2015V20.1196C10.2575 19.8184 10.16 19.5263 9.98475 19.2813C9.80948 19.0362 9.56454 18.8496 9.28178 18.7456C9.00732 18.6244 8.70286 18.5883 8.40767 18.6418C8.11247 18.6953 7.84008 18.8361 7.62562 19.0459L7.57102 19.1005C7.402 19.2697 7.20128 19.4039 6.98034 19.4955C6.7594 19.5871 6.52257 19.6342 6.2834 19.6342C6.04423 19.6342 5.80741 19.5871 5.58647 19.4955C5.36553 19.4039 5.16481 19.2697 4.99578 19.1005C4.82657 18.9314 4.69233 18.7307 4.60074 18.5098C4.50916 18.2888 4.46201 18.052 4.46201 17.8128C4.46201 17.5737 4.50916 17.3368 4.60074 17.1159C4.69233 16.895 4.82657 16.6942 4.99578 16.5252L5.05038 16.4706C5.26016 16.2562 5.40089 15.9838 5.45442 15.6886C5.50794 15.3934 5.47181 15.0889 5.35067 14.8145C5.23532 14.5453 5.04379 14.3158 4.79965 14.1541C4.55551 13.9924 4.26943 13.9056 3.97661 13.9045H3.82191C3.33923 13.9045 2.87631 13.7127 2.53501 13.3714C2.1937 13.0301 2.00195 12.5672 2.00195 12.0845C2.00195 11.6018 2.1937 11.1389 2.53501 10.7976C2.87631 10.4563 3.33923 10.2646 3.82191 10.2646H3.90381C4.20501 10.2575 4.49712 10.16 4.74217 9.98475C4.98722 9.80948 5.17388 9.56454 5.27788 9.28178C5.39901 9.00732 5.43514 8.70286 5.38162 8.40767C5.32809 8.11247 5.18737 7.84008 4.97758 7.62562L4.92298 7.57102C4.75377 7.402 4.61953 7.20128 4.52795 6.98034C4.43636 6.7594 4.38922 6.52257 4.38922 6.2834C4.38922 6.04423 4.43636 5.80741 4.52795 5.58647C4.61953 5.36553 4.75377 5.16481 4.92298 4.99578C5.09201 4.82657 5.29273 4.69233 5.51367 4.60074C5.73461 4.50916 5.97143 4.46201 6.2106 4.46201C6.44977 4.46201 6.6866 4.50916 6.90754 4.60074C7.12848 4.69233 7.3292 4.82657 7.49822 4.99578L7.55282 5.05038C7.76729 5.26016 8.03968 5.40089 8.33487 5.45442C8.63006 5.50794 8.93452 5.47181 9.20898 5.35067H9.28178C9.55093 5.23532 9.78047 5.04379 9.94215 4.79965C10.1038 4.55551 10.1906 4.26943 10.1918 3.97661V3.82191C10.1918 3.33923 10.3835 2.87631 10.7248 2.53501C11.0661 2.1937 11.529 2.00195 12.0117 2.00195C12.4944 2.00195 12.9573 2.1937 13.2986 2.53501C13.6399 2.87631 13.8317 3.33923 13.8317 3.82191V3.90381C13.8328 4.19663 13.9196 4.48271 14.0813 4.72685C14.243 4.97099 14.4725 5.16252 14.7417 5.27788C15.0161 5.39901 15.3206 5.43514 15.6158 5.38162C15.911 5.32809 16.1834 5.18737 16.3978 4.97758L16.4524 4.92298C16.6214 4.75377 16.8222 4.61953 17.0431 4.52795C17.264 4.43636 17.5009 4.38922 17.74 4.38922C17.9792 4.38922 18.216 4.43636 18.437 4.52795C18.6579 4.61953 18.8586 4.75377 19.0277 4.92298C19.1969 5.09201 19.3311 5.29273 19.4227 5.51367C19.5143 5.73461 19.5614 5.97143 19.5614 6.2106C19.5614 6.44977 19.5143 6.6866 19.4227 6.90754C19.3311 7.12848 19.1969 7.3292 19.0277 7.49822L18.9731 7.55282C18.7633 7.76729 18.6225 8.03968 18.569 8.33487C18.5155 8.63006 18.5516 8.93452 18.6728 9.20898V9.28178C18.7881 9.55093 18.9796 9.78047 19.2238 9.94215C19.4679 10.1038 19.754 10.1906 20.0468 10.1918H20.2015C20.6842 10.1918 21.1471 10.3835 21.4884 10.7248C21.8297 11.0661 22.0215 11.529 22.0215 12.0117C22.0215 12.4944 21.8297 12.9573 21.4884 13.2986C21.1471 13.6399 20.6842 13.8317 20.2015 13.8317H20.1196C19.8268 13.8328 19.5407 13.9196 19.2966 14.0813C19.0524 14.243 18.8609 14.4725 18.7456 14.7417Z" stroke="white" stroke-width="2.00195" stroke-linecap="round" stroke-linejoin="round"/>
</svg>
