<svg width="25" height="25" viewBox="0 0 25 25" fill="none" xmlns="http://www.w3.org/2000/svg">
<path d="M21.2207 12.0113C21.4988 12.0113 21.6379 12.0113 21.7492 11.9512C21.8422 11.9009 21.9267 11.8094 21.9693 11.7127C22.0204 11.5969 22.0101 11.4684 21.9895 11.2114C21.9061 10.1709 21.6602 9.14814 21.2595 8.18073C20.7565 6.96629 20.0192 5.86282 19.0897 4.93333C18.1602 4.00383 17.0567 3.26652 15.8423 2.76348C14.8749 2.36277 13.8521 2.11697 12.8117 2.03355C12.5546 2.01294 12.4261 2.00264 12.3103 2.05368C12.2136 2.09632 12.1221 2.18079 12.0718 2.27378C12.0117 2.38511 12.0117 2.52418 12.0117 2.80232V11.2105C12.0117 11.4908 12.0117 11.631 12.0663 11.738C12.1143 11.8322 12.1908 11.9088 12.285 11.9567C12.3921 12.0113 12.5322 12.0113 12.8125 12.0113H21.2207Z" fill="white"/>
<path d="M21.2306 15.9051C20.5938 17.411 19.5978 18.7381 18.3297 19.7702C17.0615 20.8023 15.5599 21.508 13.956 21.8257C12.3521 22.1433 10.6948 22.0632 9.12897 21.5924C7.56316 21.1216 6.13653 20.2744 4.97379 19.1249C3.81105 17.9754 2.94761 16.5585 2.45895 14.9982C1.97029 13.4378 1.8713 11.7816 2.17063 10.1741C2.46996 8.56672 3.15849 7.05709 4.17604 5.77725C5.19358 4.4974 6.50915 3.4863 8.00773 2.83235M21.2595 8.18073C21.6602 9.14814 21.906 10.1709 21.9894 11.2114C22.01 11.4684 22.0203 11.5969 21.9693 11.7127C21.9266 11.8094 21.8421 11.9009 21.7492 11.9512C21.6378 12.0113 21.4988 12.0113 21.2206 12.0113H12.8124C12.5321 12.0113 12.392 12.0113 12.2849 11.9567C12.1907 11.9088 12.1142 11.8322 12.0662 11.738C12.0116 11.631 12.0116 11.4908 12.0116 11.2105V2.80232C12.0116 2.52418 12.0116 2.38511 12.0718 2.27378C12.122 2.18079 12.2135 2.09632 12.3102 2.05368C12.426 2.00264 12.5545 2.01294 12.8116 2.03355C13.8521 2.11697 14.8748 2.36277 15.8422 2.76348C17.0566 3.26652 18.1601 4.00383 19.0896 4.93333C20.0191 5.86282 20.7564 6.96629 21.2595 8.18073Z" stroke="white" stroke-width="2.00195" stroke-linecap="round" stroke-linejoin="round"/>
</svg>
