<svg width="32" height="34" viewBox="0 0 32 34" fill="none" xmlns="http://www.w3.org/2000/svg">
<path d="M25.9888 19.4086C26.9972 19.4062 27.995 19.2028 28.9238 18.8103V30.1663C28.9238 31.0442 28.5751 31.8861 27.9543 32.5069C27.3336 33.1276 26.4917 33.4764 25.6138 33.4764H20.6487C20.2098 33.4764 19.7888 33.302 19.4784 32.9916C19.168 32.6812 18.9937 32.2603 18.9937 31.8213V26.8563C18.9935 26.3745 18.8883 25.8986 18.6853 25.4616C18.4824 25.0247 18.1865 24.6373 17.8185 24.3265C17.4504 24.0157 17.019 23.7888 16.5542 23.6619C16.0895 23.5349 15.6027 23.5109 15.1277 23.5914C14.3377 23.7506 13.6288 24.1826 13.1253 24.8119C12.6218 25.4411 12.3556 26.2275 12.3735 27.0332V31.8213C12.3735 32.2603 12.1992 32.6812 11.8888 32.9916C11.5784 33.302 11.1575 33.4764 10.7185 33.4764H5.75343C4.87555 33.4764 4.03362 33.1276 3.41286 32.5069C2.79211 31.8861 2.44337 31.0442 2.44337 30.1663V18.8103C3.78477 19.3793 5.26233 19.5472 6.69719 19.2938C8.13205 19.0403 9.46268 18.3764 10.528 17.3824C11.9289 18.6846 13.7708 19.4084 15.6834 19.4084C17.5961 19.4084 19.4379 18.6846 20.8389 17.3824C22.2386 18.683 24.0781 19.4067 25.9888 19.4086ZM31.0092 10.8025L29.4558 3.03608C29.3056 2.28578 28.9 1.61069 28.3082 1.12567C27.7164 0.640654 26.9748 0.375663 26.2096 0.375782H5.15762C4.39233 0.375647 3.65064 0.640692 3.05876 1.12581C2.46689 1.61093 2.06139 2.28615 1.91128 3.03657L0.358033 10.8025C0.220512 11.4894 0.225435 12.1972 0.372499 12.8821C0.519562 13.567 0.805636 14.2145 1.21301 14.7844C1.62039 15.3543 2.1404 15.8345 2.74086 16.1953C3.34131 16.5561 4.00944 16.7899 4.70387 16.8821C5.39831 16.9743 6.10428 16.9229 6.77808 16.7313C7.45188 16.5396 8.07918 16.2117 8.62115 15.7679C9.16311 15.324 9.60821 14.7736 9.92889 14.1508C10.2496 13.528 10.439 12.846 10.4855 12.147H10.557C10.6389 13.4399 11.2096 14.6532 12.1533 15.5408C13.0971 16.4283 14.3431 16.9236 15.6386 16.9261H15.7286C17.0239 16.9234 18.2697 16.4282 19.2133 15.5407C20.1569 14.6533 20.7275 13.4402 20.8096 12.1475H20.8811C20.9283 12.846 21.1183 13.5273 21.4393 14.1495C21.7603 14.7716 22.2055 15.3213 22.7473 15.7645C23.2892 16.2078 23.9162 16.5352 24.5896 16.7265C25.263 16.9178 25.9685 16.969 26.6625 16.8768C27.3565 16.7846 28.0242 16.5511 28.6243 16.1907C29.2244 15.8302 29.7443 15.3505 30.1517 14.7812C30.559 14.2119 30.8453 13.5651 30.9928 12.8807C31.1403 12.1964 31.1459 11.489 31.0092 10.8025Z" fill="#212121"/>
</svg>
