<svg width="24" height="24" viewBox="0 0 24 24" fill="none" xmlns="http://www.w3.org/2000/svg">
<path d="M0.00317383 7.19808V12.7966C0.00317383 16.7655 3.23231 19.9947 7.20125 19.9947H7.91346C10.6999 19.9947 13.3196 21.08 15.2899 23.0503L16.0401 23.8005C16.1685 23.9288 16.3384 24 16.518 24C16.8935 24 17.199 23.6949 17.199 23.3206V19.9839C20.9828 19.7755 23.9972 16.6316 23.9972 12.7966V7.19808C23.9972 3.22914 20.768 0 16.7991 0H7.20165C3.23231 0 0.00317383 3.22914 0.00317383 7.19808ZM15.599 9.99733C15.599 9.11517 16.3164 8.39776 17.1986 8.39776C18.0808 8.39776 18.7982 9.11517 18.7982 9.99733C18.7982 10.8795 18.0808 11.5969 17.1986 11.5969C16.3164 11.5969 15.599 10.8795 15.599 9.99733ZM10.4004 9.99733C10.4004 9.11517 11.1178 8.39776 12 8.39776C12.8821 8.39776 13.5995 9.11517 13.5995 9.99733C13.5995 10.8795 12.8821 11.5969 12 11.5969C11.1178 11.5969 10.4004 10.8795 10.4004 9.99733ZM5.20179 9.99733C5.20179 9.11517 5.9192 8.39776 6.80136 8.39776C7.68353 8.39776 8.40093 9.11517 8.40093 9.99733C8.40093 10.8795 7.68353 11.5969 6.80136 11.5969C5.9192 11.5969 5.20179 10.8795 5.20179 9.99733Z" fill="#757575"/>
</svg>
