<svg width="24" height="24" viewBox="0 0 24 24" fill="none" xmlns="http://www.w3.org/2000/svg">
<g clip-path="url(#clip0_2001_5009)">
<path d="M5.5 11C7.43 11 9 9.43 9 7.5C9 5.57 7.43 4 5.5 4C3.57 4 2 5.57 2 7.5C2 9.43 3.57 11 5.5 11ZM5.5 6C6.327 6 7 6.673 7 7.5C7 8.327 6.327 9 5.5 9C4.673 9 4 8.327 4 7.5C4 6.673 4.673 6 5.5 6ZM15.5 7C17.43 7 19 5.43 19 3.5C19 1.57 17.43 0 15.5 0C13.57 0 12 1.57 12 3.5C12 5.43 13.57 7 15.5 7ZM15.5 2C16.327 2 17 2.673 17 3.5C17 4.327 16.327 5 15.5 5C14.673 5 14 4.327 14 3.5C14 2.673 14.673 2 15.5 2ZM17 10C13.141 10 10 13.141 10 17C10 20.859 13.141 24 17 24C20.859 24 24 20.859 24 17C24 13.141 20.859 10 17 10ZM17 22C14.243 22 12 19.757 12 17C12 14.243 14.243 12 17 12C19.757 12 22 14.243 22 17C22 19.757 19.757 22 17 22ZM20.991 16.118L17.535 19.517C17.227 19.826 16.808 19.999 16.362 19.999C15.916 19.999 15.498 19.825 15.183 19.51L13.338 17.722L14.731 16.286L16.361 17.866L19.589 14.691L20.991 16.118ZM8 12C8.477 12 8.922 12.122 9.323 12.321C8.976 12.888 8.689 13.495 8.474 14.136C8.331 14.057 8.175 14 8.001 14H3C2.448 14 2 14.448 2 15V18H0V15C0 13.346 1.346 12 3 12H8ZM10 11.349V11C10 9.346 11.346 8 13 8H17C14.171 8 11.65 9.308 10 11.349Z" fill="white"/>
</g>
<defs>
<clipPath id="clip0_2001_5009">
<rect width="24" height="24" fill="white"/>
</clipPath>
</defs>
</svg>
